<svg width="50" height="50" viewBox="0 0 142 158" fill="none" xmlns="http://www.w3.org/2000/svg">
<g filter="url(#filter0_d_25_22)">
<path fill-rule="evenodd" clip-rule="evenodd" d="M54.25 12.2833V39.0833H27.45L29.6833 36.2916L51.4583 13.9583L54.25 12.2833ZM65.4167 11.1666V39.0833C65.4167 42.0449 64.2402 44.8852 62.146 46.9793C60.0519 49.0735 57.2116 50.25 54.25 50.25H26.3333V111.667C26.3333 117.808 31.3583 122.833 37.5 122.833H104.5C107.462 122.833 110.302 121.657 112.396 119.563C114.49 117.468 115.667 114.628 115.667 111.667V22.3333C115.667 19.3717 114.49 16.5314 112.396 14.4373C110.302 12.3431 107.462 11.1666 104.5 11.1666H65.4167Z" fill="white"/>
</g>
<defs>
<filter id="filter0_d_25_22" x="0" y="0" width="142" height="158" filterUnits="userSpaceOnUse" color-interpolation-filters="sRGB">
<feFlood flood-opacity="0" result="BackgroundImageFix"/>
<feColorMatrix in="SourceAlpha" type="matrix" values="0 0 0 0 0 0 0 0 0 0 0 0 0 0 0 0 0 0 127 0" result="hardAlpha"/>
<feOffset dy="20"/>
<feGaussianBlur stdDeviation="2"/>
<feComposite in2="hardAlpha" operator="out"/>
<feColorMatrix type="matrix" values="0 0 0 0 0 0 0 0 0 0 0 0 0 0 0 0 0 0 0.25 0"/>
<feBlend mode="normal" in2="BackgroundImageFix" result="effect1_dropShadow_25_22"/>
<feBlend mode="normal" in="SourceGraphic" in2="effect1_dropShadow_25_22" result="shape"/>
</filter>
</defs>
</svg>
